<svg width="269" height="123" viewBox="0 0 269 123" fill="none" xmlns="http://www.w3.org/2000/svg">
<rect width="269" height="123" rx="16" fill="#F9B023"/>
<path d="M141.12 40.5522C142.533 40.5522 143.697 40.2589 144.61 39.6722C145.53 39.0855 146.21 38.2855 146.65 37.2722C147.097 36.2589 147.32 35.1155 147.32 33.8422C147.32 33.7622 147.317 33.6422 147.31 33.4822C147.31 33.3222 147.3 33.1555 147.28 32.9822H142.5V34.0322H146.08C146.06 35.1189 145.873 36.0689 145.52 36.8822C145.173 37.6889 144.64 38.3155 143.92 38.7622C143.207 39.2022 142.283 39.4222 141.15 39.4222C139.97 39.4222 138.983 39.1522 138.19 38.6122C137.397 38.0722 136.803 37.3222 136.41 36.3622C136.017 35.4022 135.823 34.2989 135.83 33.0522C135.843 31.7989 136.047 30.6955 136.44 29.7422C136.833 28.7889 137.42 28.0422 138.2 27.5022C138.987 26.9622 139.97 26.6922 141.15 26.6922C142.243 26.6989 143.163 26.9655 143.91 27.4922C144.663 28.0189 145.207 28.7289 145.54 29.6222L146.68 29.2722C146.293 28.1589 145.633 27.2655 144.7 26.5922C143.767 25.9122 142.573 25.5722 141.12 25.5722C139.713 25.5722 138.527 25.8855 137.56 26.5122C136.593 27.1389 135.857 28.0155 135.35 29.1422C134.85 30.2622 134.6 31.5655 134.6 33.0522C134.6 34.5455 134.85 35.8555 135.35 36.9822C135.857 38.1089 136.597 38.9855 137.57 39.6122C138.543 40.2389 139.727 40.5522 141.12 40.5522ZM153.776 40.5522C154.829 40.5522 155.766 40.2989 156.586 39.7922C157.406 39.2789 158.032 38.5589 158.466 37.6322L157.426 37.1722C157.059 37.8989 156.562 38.4589 155.936 38.8522C155.316 39.2389 154.589 39.4322 153.756 39.4322C152.596 39.4322 151.686 39.0622 151.026 38.3222C150.366 37.5755 150.012 36.5289 149.966 35.1822H158.696C158.722 33.2889 158.299 31.8122 157.426 30.7522C156.552 29.6855 155.329 29.1522 153.756 29.1522C152.722 29.1522 151.829 29.3855 151.076 29.8522C150.322 30.3122 149.742 30.9689 149.336 31.8222C148.929 32.6755 148.726 33.6922 148.726 34.8722C148.726 36.0322 148.929 37.0389 149.336 37.8922C149.749 38.7389 150.332 39.3955 151.086 39.8622C151.846 40.3222 152.742 40.5522 153.776 40.5522ZM153.776 30.2422C154.869 30.2422 155.726 30.5755 156.346 31.2422C156.972 31.9089 157.342 32.8755 157.456 34.1422H149.986C150.092 32.8955 150.469 31.9355 151.116 31.2622C151.769 30.5822 152.656 30.2422 153.776 30.2422ZM166.638 40.2522V39.2122C165.831 39.3389 165.168 39.3555 164.648 39.2622C164.128 39.1622 163.748 38.8822 163.508 38.4222C163.381 38.1755 163.311 37.9055 163.298 37.6122C163.291 37.3189 163.288 36.9422 163.288 36.4822V30.5022H166.638V29.4522H163.288V26.4522H162.128V29.4522H159.708V30.5022H162.128V36.5022C162.128 37.0022 162.138 37.4489 162.158 37.8422C162.178 38.2289 162.278 38.6089 162.458 38.9822C162.678 39.4422 163.008 39.7855 163.448 40.0122C163.888 40.2389 164.384 40.3655 164.938 40.3922C165.498 40.4189 166.064 40.3722 166.638 40.2522Z" fill="white"/>
<path d="M138.648 94.4124C139.579 94.4124 140.359 94.2066 140.988 93.7949C141.62 93.3789 142.097 92.8047 142.418 92.0724C142.738 91.3357 142.899 90.4907 142.899 89.5374C142.899 88.5797 142.738 87.7347 142.418 87.0024C142.097 86.2701 141.62 85.6981 140.988 85.2864C140.359 84.8704 139.579 84.6624 138.648 84.6624C137.716 84.6624 136.934 84.8704 136.301 85.2864C135.668 85.6981 135.192 86.2701 134.871 87.0024C134.55 87.7347 134.39 88.5797 134.39 89.5374C134.39 90.4907 134.55 91.3357 134.871 92.0724C135.192 92.8047 135.668 93.3789 136.301 93.7949C136.934 94.2066 137.716 94.4124 138.648 94.4124ZM138.648 93.6779C137.881 93.6779 137.239 93.5024 136.724 93.1514C136.208 92.8004 135.822 92.3129 135.567 91.6889C135.311 91.0649 135.185 90.3477 135.19 89.5374C135.198 88.7227 135.33 88.0056 135.586 87.3859C135.842 86.7619 136.223 86.2744 136.73 85.9234C137.241 85.5681 137.881 85.3926 138.648 85.3969C139.415 85.3969 140.054 85.5724 140.565 85.9234C141.076 86.2744 141.46 86.7619 141.716 87.3859C141.971 88.0056 142.099 88.7227 142.099 89.5374C142.099 90.3477 141.971 91.0649 141.716 91.6889C141.46 92.3129 141.076 92.8004 140.565 93.1514C140.054 93.5024 139.415 93.6779 138.648 93.6779ZM144.203 94.2174H144.957V90.4279C144.957 89.9122 145.035 89.4529 145.191 89.0499C145.351 88.6469 145.594 88.3306 145.919 88.1009C146.244 87.8712 146.662 87.7564 147.173 87.7564C147.91 87.7564 148.456 88.0034 148.811 88.4974C149.167 88.9871 149.344 89.6761 149.344 90.5644V94.2174H150.098V90.3759C150.098 89.7649 149.997 89.2059 149.793 88.6989C149.594 88.1919 149.284 87.7889 148.863 87.4899C148.447 87.1866 147.917 87.0349 147.271 87.0349C146.768 87.0349 146.309 87.1346 145.893 87.3339C145.481 87.5332 145.145 87.8387 144.885 88.2504V87.1974H144.203V94.2174ZM155.113 94.2174H155.86V87.8799H157.856V87.1974H155.86V86.5149C155.86 86.0859 155.955 85.7782 156.146 85.5919C156.337 85.4056 156.627 85.3124 157.017 85.3124H157.856V84.6624H156.952C156.675 84.6624 156.415 84.6927 156.172 84.7534C155.934 84.8141 155.721 84.9419 155.535 85.1369C155.357 85.3319 155.243 85.5464 155.191 85.7804C155.139 86.0144 155.113 86.2679 155.113 86.5409V87.1974H153.865V87.8799H155.113V94.2174ZM159.221 85.7804H159.968V84.8249H159.221V85.7804ZM159.221 94.2174H159.968V87.1974H159.221V94.2174ZM161.913 94.2174H162.667V90.7399C162.667 90.4539 162.68 90.1614 162.706 89.8624C162.736 89.5591 162.806 89.2709 162.914 88.9979C163.027 88.7206 163.202 88.4779 163.44 88.2699C163.709 88.0402 163.999 87.9059 164.311 87.8669C164.628 87.8279 164.925 87.8409 165.202 87.9059V87.1974C164.894 87.1107 164.535 87.1064 164.123 87.1844C163.716 87.2624 163.371 87.4292 163.089 87.6849C162.903 87.8452 162.738 88.0511 162.595 88.3024V87.1974H161.913V94.2174ZM168.772 94.3994C169.617 94.3994 170.28 94.2152 170.761 93.8469C171.246 93.4786 171.489 92.9672 171.489 92.3129C171.489 91.9532 171.411 91.6521 171.255 91.4094C171.099 91.1624 170.83 90.9479 170.449 90.7659C170.072 90.5796 169.546 90.4019 168.87 90.2329C168.319 90.0942 167.89 89.9642 167.583 89.8429C167.279 89.7172 167.067 89.5829 166.946 89.4399C166.829 89.2926 166.77 89.1171 166.77 88.9134C166.77 88.5494 166.941 88.2569 167.284 88.0359C167.626 87.8106 168.068 87.7022 168.61 87.7109C169.186 87.7152 169.663 87.8496 170.04 88.1139C170.421 88.3739 170.648 88.7292 170.722 89.1799L171.489 89.0369C171.45 88.6339 171.303 88.2807 171.047 87.9774C170.791 87.6697 170.456 87.4314 170.04 87.2624C169.624 87.0891 169.156 87.0024 168.636 87.0024C168.116 87.0024 167.656 87.0847 167.258 87.2494C166.863 87.4141 166.556 87.6437 166.335 87.9384C166.114 88.2287 166.003 88.5667 166.003 88.9524C166.003 89.2731 166.077 89.5439 166.224 89.7649C166.376 89.9859 166.634 90.1831 166.998 90.3564C167.366 90.5254 167.875 90.6987 168.525 90.8764C169.14 91.0411 169.604 91.1884 169.916 91.3184C170.228 91.4441 170.436 91.5806 170.54 91.7279C170.648 91.8752 170.703 92.0681 170.703 92.3064C170.703 92.7354 170.531 93.0734 170.189 93.3204C169.847 93.5674 169.385 93.6909 168.805 93.6909C168.22 93.6909 167.726 93.5696 167.323 93.3269C166.924 93.0799 166.668 92.7462 166.556 92.3259L165.789 92.4559C165.914 93.0669 166.239 93.5436 166.764 93.8859C167.292 94.2282 167.962 94.3994 168.772 94.3994ZM176.657 94.2174V93.5414C176.133 93.6237 175.701 93.6346 175.363 93.5739C175.025 93.5089 174.778 93.3269 174.622 93.0279C174.54 92.8676 174.495 92.6921 174.486 92.5014C174.482 92.3107 174.479 92.0659 174.479 91.7669V87.8799H176.657V87.1974H174.479V85.2474H173.725V87.1974H172.152V87.8799H173.725V91.7799C173.725 92.1049 173.732 92.3952 173.745 92.6509C173.758 92.9022 173.823 93.1492 173.94 93.3919C174.083 93.6909 174.297 93.9141 174.583 94.0614C174.869 94.2087 175.192 94.2911 175.552 94.3084C175.916 94.3257 176.284 94.2954 176.657 94.2174ZM183.759 94.4124C184.366 94.4124 184.908 94.2759 185.384 94.0029C185.861 93.7299 186.236 93.3551 186.509 92.8784C186.782 92.4017 186.918 91.8601 186.918 91.2534V87.8214C186.918 87.2147 186.782 86.6731 186.509 86.1964C186.236 85.7197 185.861 85.3449 185.384 85.0719C184.908 84.7989 184.366 84.6624 183.759 84.6624C183.153 84.6624 182.611 84.7989 182.134 85.0719C181.658 85.3449 181.283 85.7197 181.01 86.1964C180.737 86.6731 180.6 87.2147 180.6 87.8214V91.2534C180.6 91.8601 180.737 92.4017 181.01 92.8784C181.283 93.3551 181.658 93.7299 182.134 94.0029C182.611 94.2759 183.153 94.4124 183.759 94.4124ZM183.759 93.3009C183.395 93.3009 183.062 93.2121 182.758 93.0344C182.459 92.8567 182.221 92.6184 182.043 92.3194C181.866 92.0161 181.777 91.6824 181.777 91.3184V87.7499C181.777 87.3816 181.866 87.0479 182.043 86.7489C182.221 86.4499 182.459 86.2116 182.758 86.0339C183.062 85.8562 183.395 85.7674 183.759 85.7674C184.128 85.7674 184.461 85.8562 184.76 86.0339C185.059 86.2116 185.298 86.4499 185.475 86.7489C185.653 87.0479 185.742 87.3816 185.742 87.7499V91.3184C185.742 91.6824 185.653 92.0161 185.475 92.3194C185.298 92.6184 185.059 92.8567 184.76 93.0344C184.461 93.2121 184.128 93.3009 183.759 93.3009ZM191.306 94.3994C191.886 94.3994 192.406 94.2694 192.866 94.0094C193.325 93.7494 193.689 93.3897 193.958 92.9304C194.226 92.4667 194.361 91.9359 194.361 91.3379C194.361 90.7919 194.25 90.3022 194.029 89.8689C193.812 89.4356 193.505 89.0889 193.106 88.8289C192.712 88.5689 192.246 88.4237 191.709 88.3934L194.237 85.9689V84.8574H188.719V85.9624H192.801L189.759 88.7119L190.318 89.6284C190.465 89.5547 190.623 89.4962 190.792 89.4529C190.961 89.4052 191.126 89.3814 191.286 89.3814C191.849 89.3814 192.304 89.5634 192.651 89.9274C192.998 90.2871 193.171 90.7572 193.171 91.3379C193.171 91.9099 193 92.3779 192.658 92.7419C192.32 93.1016 191.867 93.2857 191.299 93.2944C190.883 93.2987 190.506 93.1882 190.168 92.9629C189.834 92.7376 189.598 92.4082 189.46 91.9749L188.348 92.2934C188.547 92.9434 188.916 93.4569 189.453 93.8339C189.995 94.2109 190.612 94.3994 191.306 94.3994ZM201.533 94.4124C202.226 94.4124 202.815 94.2564 203.301 93.9444C203.786 93.6324 204.156 93.1969 204.412 92.6379C204.672 92.0789 204.802 91.4311 204.802 90.6944C204.802 89.9707 204.674 89.3316 204.419 88.7769C204.167 88.2222 203.797 87.7889 203.307 87.4769C202.822 87.1606 202.23 87.0024 201.533 87.0024C200.852 87.0024 200.267 87.1584 199.778 87.4704C199.288 87.7781 198.913 88.2092 198.653 88.7639C198.393 89.3142 198.263 89.9577 198.263 90.6944C198.263 91.4224 198.391 92.0659 198.647 92.6249C198.902 93.1839 199.273 93.6216 199.758 93.9379C200.248 94.2542 200.839 94.4124 201.533 94.4124ZM201.533 93.6844C200.722 93.6844 200.107 93.4114 199.687 92.8654C199.271 92.3194 199.063 91.5957 199.063 90.6944C199.063 90.1137 199.151 89.6002 199.329 89.1539C199.507 88.7076 199.778 88.3587 200.142 88.1074C200.51 87.8561 200.974 87.7304 201.533 87.7304C202.356 87.7304 202.973 87.9991 203.385 88.5364C203.797 89.0737 204.003 89.7931 204.003 90.6944C204.003 91.5827 203.797 92.3042 203.385 92.8589C202.978 93.4092 202.36 93.6844 201.533 93.6844ZM206.232 94.2174H206.986V90.7399C206.986 90.4539 206.999 90.1614 207.025 89.8624C207.056 89.5591 207.125 89.2709 207.233 88.9979C207.346 88.7206 207.521 88.4779 207.76 88.2699C208.028 88.0402 208.319 87.9059 208.631 87.8669C208.947 87.8279 209.244 87.8409 209.521 87.9059V87.1974C209.214 87.1107 208.854 87.1064 208.442 87.1844C208.035 87.2624 207.69 87.4292 207.409 87.6849C207.222 87.8452 207.058 88.0511 206.915 88.3024V87.1974H206.232V94.2174ZM213.322 94.4124C213.868 94.4124 214.341 94.2889 214.739 94.0419C215.142 93.7906 215.467 93.4526 215.714 93.0279V94.2174H216.397V84.8574H215.649V88.2634C215.398 87.8691 215.071 87.5614 214.668 87.3404C214.265 87.1151 213.793 87.0024 213.251 87.0024C212.614 87.0024 212.07 87.1671 211.619 87.4964C211.173 87.8214 210.831 88.2634 210.592 88.8224C210.354 89.3771 210.235 90.0011 210.235 90.6944C210.235 91.3964 210.354 92.0291 210.592 92.5924C210.831 93.1514 211.18 93.5956 211.639 93.9249C212.103 94.2499 212.664 94.4124 213.322 94.4124ZM213.368 93.6974C212.852 93.6974 212.421 93.5652 212.074 93.3009C211.728 93.0366 211.468 92.6791 211.294 92.2284C211.121 91.7734 211.034 91.2621 211.034 90.6944C211.034 90.1311 211.119 89.6262 211.288 89.1799C211.457 88.7292 211.715 88.3739 212.061 88.1139C212.408 87.8496 212.848 87.7174 213.381 87.7174C213.897 87.7174 214.328 87.8452 214.674 88.1009C215.021 88.3566 215.281 88.7076 215.454 89.1539C215.628 89.6002 215.714 90.1137 215.714 90.6944C215.714 91.2664 215.628 91.7799 215.454 92.2349C215.281 92.6856 215.021 93.0431 214.674 93.3074C214.328 93.5674 213.892 93.6974 213.368 93.6974ZM221.109 94.4124C221.794 94.4124 222.403 94.2477 222.936 93.9184C223.469 93.5847 223.876 93.1167 224.158 92.5144L223.482 92.2154C223.243 92.6877 222.92 93.0517 222.513 93.3074C222.11 93.5587 221.638 93.6844 221.096 93.6844C220.342 93.6844 219.751 93.4439 219.322 92.9629C218.893 92.4776 218.663 91.7972 218.633 90.9219H224.307C224.324 89.6912 224.049 88.7314 223.482 88.0424C222.914 87.3491 222.119 87.0024 221.096 87.0024C220.424 87.0024 219.844 87.1541 219.354 87.4574C218.864 87.7564 218.487 88.1832 218.223 88.7379C217.959 89.2926 217.827 89.9534 217.827 90.7204C217.827 91.4744 217.959 92.1287 218.223 92.6834C218.492 93.2337 218.871 93.6606 219.361 93.9639C219.855 94.2629 220.437 94.4124 221.109 94.4124ZM221.109 87.7109C221.82 87.7109 222.377 87.9276 222.78 88.3609C223.187 88.7942 223.427 89.4226 223.501 90.2459H218.646C218.715 89.4356 218.96 88.8116 219.38 88.3739C219.805 87.9319 220.381 87.7109 221.109 87.7109ZM225.745 94.2174H226.499V90.7399C226.499 90.4539 226.512 90.1614 226.538 89.8624C226.568 89.5591 226.638 89.2709 226.746 88.9979C226.859 88.7206 227.034 88.4779 227.272 88.2699C227.541 88.0402 227.831 87.9059 228.143 87.8669C228.46 87.8279 228.757 87.8409 229.034 87.9059V87.1974C228.726 87.1107 228.367 87.1064 227.955 87.1844C227.548 87.2624 227.203 87.4292 226.921 87.6849C226.735 87.8452 226.57 88.0511 226.427 88.3024V87.1974H225.745V94.2174Z" fill="white"/>
<path d="M141.384 72.2422C142.563 72.2422 143.655 71.9648 144.66 71.4102C145.665 70.8468 146.476 70.0928 147.091 69.1482C147.706 68.1948 148.014 67.1288 148.014 65.9502C148.014 64.7715 147.758 63.7272 147.247 62.8172C146.744 61.8985 146.042 61.1792 145.141 60.6592C144.248 60.1305 143.213 59.8662 142.034 59.8662C141.627 59.8662 141.193 59.9182 140.734 60.0222C140.275 60.1262 139.837 60.2908 139.421 60.5162L139.681 56.4342H146.766V53.1322H136.548L135.976 63.0902L138.966 64.0002C139.174 63.8008 139.486 63.5928 139.902 63.3762C140.318 63.1508 140.855 63.0382 141.514 63.0382C142.051 63.0382 142.541 63.1682 142.983 63.4282C143.434 63.6882 143.789 64.0392 144.049 64.4812C144.318 64.9232 144.452 65.4128 144.452 65.9502C144.452 66.4875 144.318 66.9772 144.049 67.4192C143.789 67.8612 143.434 68.2122 142.983 68.4722C142.541 68.7322 142.051 68.8622 141.514 68.8622C140.907 68.8622 140.331 68.6672 139.785 68.2772C139.239 67.8872 138.879 67.3628 138.706 66.7042L135.3 67.6142C135.56 68.5328 135.989 69.3388 136.587 70.0322C137.185 70.7255 137.896 71.2672 138.719 71.6572C139.551 72.0472 140.439 72.2422 141.384 72.2422ZM158.073 72.2422C159.459 72.2422 160.673 71.9518 161.713 71.3712C162.753 70.7905 163.563 69.9802 164.144 68.9402C164.724 67.9002 165.015 66.6868 165.015 65.3002V59.6842C165.015 58.2975 164.724 57.0842 164.144 56.0442C163.563 55.0042 162.753 54.1938 161.713 53.6132C160.673 53.0325 159.459 52.7422 158.073 52.7422C156.686 52.7422 155.473 53.0325 154.433 53.6132C153.393 54.1938 152.582 55.0042 152.002 56.0442C151.421 57.0842 151.131 58.2975 151.131 59.6842V65.3002C151.131 66.6868 151.421 67.9002 152.002 68.9402C152.582 69.9802 153.393 70.7905 154.433 71.3712C155.473 71.9518 156.686 72.2422 158.073 72.2422ZM158.073 68.8882C157.449 68.8882 156.885 68.7408 156.383 68.4462C155.88 68.1515 155.481 67.7528 155.187 67.2502C154.892 66.7475 154.745 66.1842 154.745 65.5602V59.3982C154.745 58.7742 154.892 58.2108 155.187 57.7082C155.481 57.2055 155.88 56.8068 156.383 56.5122C156.885 56.2175 157.449 56.0702 158.073 56.0702C158.697 56.0702 159.26 56.2175 159.763 56.5122C160.265 56.8068 160.664 57.2055 160.959 57.7082C161.253 58.2108 161.401 58.7742 161.401 59.3982V65.5602C161.401 66.1842 161.253 66.7475 160.959 67.2502C160.664 67.7528 160.265 68.1515 159.763 68.4462C159.26 68.7408 158.697 68.8882 158.073 68.8882ZM173.07 62.1022C173.928 62.1022 174.708 61.8942 175.41 61.4782C176.121 61.0535 176.688 60.4902 177.113 59.7882C177.538 59.0775 177.75 58.2888 177.75 57.4222C177.75 56.5555 177.538 55.7712 177.113 55.0692C176.688 54.3585 176.121 53.7952 175.41 53.3792C174.708 52.9545 173.928 52.7422 173.07 52.7422C172.238 52.7422 171.467 52.9545 170.756 53.3792C170.045 53.8038 169.473 54.3715 169.04 55.0822C168.607 55.7928 168.39 56.5728 168.39 57.4222C168.39 58.2888 168.602 59.0775 169.027 59.7882C169.452 60.4902 170.015 61.0535 170.717 61.4782C171.428 61.8942 172.212 62.1022 173.07 62.1022ZM171.51 71.8522L187.89 55.4982L185.55 53.1322L169.17 69.5122L171.51 71.8522ZM173.07 59.1122C172.619 59.1122 172.225 58.9432 171.887 58.6052C171.549 58.2672 171.38 57.8728 171.38 57.4222C171.38 56.9628 171.549 56.5685 171.887 56.2392C172.225 55.9012 172.619 55.7322 173.07 55.7322C173.529 55.7322 173.924 55.9012 174.253 56.2392C174.591 56.5685 174.76 56.9628 174.76 57.4222C174.76 57.8728 174.591 58.2672 174.253 58.6052C173.924 58.9432 173.529 59.1122 173.07 59.1122ZM183.99 72.2422C184.848 72.2422 185.628 72.0342 186.33 71.6182C187.041 71.1935 187.608 70.6302 188.033 69.9282C188.458 69.2175 188.67 68.4288 188.67 67.5622C188.67 66.6955 188.458 65.9112 188.033 65.2092C187.608 64.4985 187.041 63.9352 186.33 63.5192C185.628 63.0945 184.848 62.8822 183.99 62.8822C183.158 62.8822 182.387 63.0945 181.676 63.5192C180.965 63.9438 180.393 64.5115 179.96 65.2222C179.527 65.9328 179.31 66.7128 179.31 67.5622C179.31 68.4288 179.518 69.2175 179.934 69.9282C180.359 70.6302 180.926 71.1935 181.637 71.6182C182.348 72.0342 183.132 72.2422 183.99 72.2422ZM183.99 69.2522C183.539 69.2522 183.145 69.0832 182.807 68.7452C182.469 68.4072 182.3 68.0128 182.3 67.5622C182.3 67.1028 182.469 66.7085 182.807 66.3792C183.145 66.0412 183.539 65.8722 183.99 65.8722C184.449 65.8722 184.844 66.0412 185.173 66.3792C185.511 66.7085 185.68 67.1028 185.68 67.5622C185.68 68.0128 185.511 68.4072 185.173 68.7452C184.844 69.0832 184.449 69.2522 183.99 69.2522ZM210.504 72.2422C212.376 72.2422 213.988 71.8348 215.34 71.0202C216.701 70.2055 217.745 69.0658 218.473 67.6012C219.21 66.1365 219.578 64.4335 219.578 62.4922C219.578 60.5508 219.21 58.8478 218.473 57.3832C217.745 55.9185 216.701 54.7788 215.34 53.9642C213.988 53.1495 212.376 52.7422 210.504 52.7422C208.632 52.7422 207.016 53.1495 205.655 53.9642C204.303 54.7788 203.259 55.9185 202.522 57.3832C201.794 58.8478 201.43 60.5508 201.43 62.4922C201.43 64.4335 201.794 66.1365 202.522 67.6012C203.259 69.0658 204.303 70.2055 205.655 71.0202C207.016 71.8348 208.632 72.2422 210.504 72.2422ZM210.504 68.9142C208.728 68.8882 207.393 68.2988 206.5 67.1462C205.616 65.9935 205.174 64.4422 205.174 62.4922C205.174 60.5422 205.616 58.9778 206.5 57.7992C207.393 56.6205 208.728 56.0442 210.504 56.0702C212.29 56.0962 213.624 56.6855 214.508 57.8382C215.392 58.9908 215.834 60.5422 215.834 62.4922C215.834 64.4422 215.392 66.0065 214.508 67.1852C213.624 68.3638 212.29 68.9402 210.504 68.9142ZM222.174 71.8522H225.71V64.2602H232.054V60.7242H225.71V56.6682H233.614V53.1322H222.174V71.8522ZM235.961 71.8522H239.497V64.2602H245.841V60.7242H239.497V56.6682H247.401V53.1322H235.961V71.8522Z" fill="white"/>
<mask id="mask0_2_6499" style="mask-type:alpha" maskUnits="userSpaceOnUse" x="0" y="0" width="269" height="123">
<rect width="269" height="123" rx="16" fill="#F9B023"/>
</mask>
<g mask="url(#mask0_2_6499)">
</g>
<g opacity="0.6">
<path d="M27.6667 43C27.6667 39.9942 28.8607 37.1116 30.9861 34.9861C33.1115 32.8607 35.9942 31.6667 39 31.6667H73C76.0058 31.6667 78.8885 32.8607 81.0139 34.9861C83.1393 37.1116 84.3333 39.9942 84.3333 43V77C84.3333 80.0058 83.1393 82.8885 81.0139 85.0139C78.8885 87.1393 76.0058 88.3334 73 88.3334H39C35.9942 88.3334 33.1115 87.1393 30.9861 85.0139C28.8607 82.8885 27.6667 80.0058 27.6667 77V43Z" stroke="white" stroke-width="2" stroke-linecap="round" stroke-linejoin="round"/>
<path d="M46.0833 57.1667C49.9954 57.1667 53.1667 53.9954 53.1667 50.0833C53.1667 46.1713 49.9954 43 46.0833 43C42.1713 43 39 46.1713 39 50.0833C39 53.9954 42.1713 57.1667 46.0833 57.1667Z" stroke="white" stroke-width="2" stroke-linecap="round" stroke-linejoin="round"/>
<path d="M63.157 61.7596L39 88.3335H73.3768C76.2827 88.3335 79.0695 87.1791 81.1243 85.1244C83.179 83.0696 84.3333 80.2828 84.3333 77.377V77.0001C84.3333 75.6798 83.8375 75.1726 82.945 74.1951L71.5267 61.7426C70.9945 61.1621 70.3472 60.6989 69.626 60.3826C68.9048 60.0662 68.1256 59.9036 67.3381 59.9052C66.5506 59.9068 65.772 60.0726 65.0521 60.3918C64.3322 60.7111 63.6868 61.177 63.157 61.7596V61.7596Z" stroke="white" stroke-width="2" stroke-linecap="round" stroke-linejoin="round"/>
</g>
</svg>
