<svg width="158" height="123" viewBox="0 0 158 123" fill="none" xmlns="http://www.w3.org/2000/svg">
<rect width="158" height="123" rx="16" fill="#E4DDCB"/>
<path d="M22.3 60.974V57.906L30.152 50.938C30.7413 50.418 31.1573 49.9283 31.4 49.469C31.6427 49.0097 31.764 48.5807 31.764 48.182C31.764 47.61 31.647 47.103 31.413 46.661C31.179 46.2103 30.8497 45.8593 30.425 45.608C30.0003 45.348 29.502 45.218 28.93 45.218C28.332 45.218 27.8033 45.3567 27.344 45.634C26.8933 45.9027 26.5423 46.2623 26.291 46.713C26.0397 47.155 25.9227 47.636 25.94 48.156H22.3C22.3 46.8733 22.5817 45.764 23.145 44.828C23.7083 43.892 24.4927 43.1683 25.498 42.657C26.5033 42.1457 27.6733 41.89 29.008 41.89C30.23 41.89 31.322 42.1587 32.284 42.696C33.2547 43.2247 34.0173 43.9657 34.572 44.919C35.1267 45.8723 35.404 46.9773 35.404 48.234C35.404 49.1613 35.274 49.9327 35.014 50.548C34.754 51.1547 34.3683 51.718 33.857 52.238C33.3457 52.7493 32.7173 53.33 31.972 53.98L26.902 58.426L26.616 57.646H35.404V60.974H22.3ZM41.7614 61V46.128L38.2514 48.286V44.386L41.7614 42.28H45.3754V61H41.7614ZM55.882 61.39C54.9374 61.39 54.049 61.195 53.217 60.805C52.3937 60.415 51.683 59.8733 51.085 59.18C50.487 58.4867 50.058 57.6807 49.798 56.762L53.204 55.852C53.3167 56.294 53.516 56.6753 53.802 56.996C54.0967 57.3167 54.4347 57.568 54.816 57.75C55.206 57.9233 55.6047 58.01 56.012 58.01C56.5494 58.01 57.039 57.88 57.481 57.62C57.9317 57.36 58.287 57.009 58.547 56.567C58.8157 56.125 58.95 55.6353 58.95 55.098C58.95 54.5607 58.8157 54.071 58.547 53.629C58.287 53.187 57.9317 52.836 57.481 52.576C57.039 52.316 56.5494 52.186 56.012 52.186C55.3534 52.186 54.816 52.2987 54.4 52.524C53.984 52.7407 53.672 52.9487 53.464 53.148L50.474 52.238L51.046 42.28H61.264V45.582H52.996L54.244 44.412L53.854 50.834L53.256 50.106C53.724 49.7247 54.257 49.4473 54.855 49.274C55.453 49.1007 56.012 49.014 56.532 49.014C57.7107 49.014 58.7464 49.2783 59.639 49.807C60.5404 50.327 61.2424 51.0463 61.745 51.965C62.2564 52.875 62.512 53.9193 62.512 55.098C62.512 56.2767 62.2044 57.3427 61.589 58.296C60.9737 59.2407 60.1634 59.9947 59.158 60.558C58.1527 61.1127 57.0607 61.39 55.882 61.39ZM70.8337 61V42.28H72.3287V50.912H83.1707V42.28H84.6787V61H83.1707V52.368H72.3287V61H70.8337ZM88.3278 61V42.28H95.3868C95.5688 42.28 95.7638 42.2887 95.9718 42.306C96.1885 42.3147 96.4138 42.3407 96.6478 42.384C97.5838 42.5313 98.3855 42.8693 99.0528 43.398C99.7288 43.918 100.244 44.5767 100.6 45.374C100.955 46.1627 101.133 47.0337 101.133 47.987C101.133 49.365 100.764 50.5653 100.028 51.588C99.2911 52.6107 98.2641 53.2607 96.9468 53.538L96.5178 53.707H89.8228V61H88.3278ZM99.8588 61L96.1668 53.382L97.5578 52.68L101.614 61H99.8588ZM89.8228 52.238H95.3608C95.5168 52.238 95.6945 52.2293 95.8938 52.212C96.1018 52.1947 96.3098 52.1687 96.5178 52.134C97.1938 51.9953 97.7571 51.7223 98.2078 51.315C98.6585 50.899 98.9965 50.4007 99.2218 49.82C99.4471 49.2393 99.5598 48.6283 99.5598 47.987C99.5598 47.3457 99.4471 46.739 99.2218 46.167C98.9965 45.5863 98.6585 45.0923 98.2078 44.685C97.7571 44.269 97.1938 43.9917 96.5178 43.853C96.3098 43.8097 96.1018 43.7793 95.8938 43.762C95.6945 43.7447 95.5168 43.736 95.3608 43.736H89.8228V52.238ZM110.833 61.39C109.551 61.39 108.394 61.1777 107.362 60.753C106.34 60.3283 105.49 59.726 104.814 58.946C104.147 58.166 103.701 57.2387 103.475 56.164L105.009 55.904C105.33 57.152 106.015 58.1357 107.063 58.855C108.121 59.5743 109.39 59.934 110.872 59.934C111.878 59.934 112.766 59.7737 113.537 59.453C114.309 59.1323 114.911 58.6817 115.344 58.101C115.778 57.5117 115.994 56.827 115.994 56.047C115.994 55.4837 115.89 55.0113 115.682 54.63C115.483 54.2487 115.223 53.9367 114.902 53.694C114.582 53.4427 114.239 53.2433 113.875 53.096C113.511 52.94 113.169 52.8143 112.848 52.719L108.142 51.315C107.518 51.133 106.959 50.9077 106.465 50.639C105.98 50.3617 105.568 50.0453 105.23 49.69C104.901 49.326 104.645 48.9143 104.463 48.455C104.29 47.9957 104.203 47.4843 104.203 46.921C104.203 45.9157 104.472 45.036 105.009 44.282C105.547 43.528 106.283 42.943 107.219 42.527C108.164 42.1023 109.247 41.89 110.469 41.89C111.7 41.8987 112.805 42.1283 113.784 42.579C114.764 43.021 115.565 43.6493 116.189 44.464C116.822 45.2787 117.229 46.245 117.411 47.363L115.864 47.636C115.743 46.778 115.431 46.0283 114.928 45.387C114.434 44.7457 113.802 44.2473 113.03 43.892C112.259 43.5367 111.401 43.359 110.456 43.359C109.546 43.3503 108.74 43.502 108.038 43.814C107.345 44.126 106.799 44.5463 106.4 45.075C106.002 45.6037 105.802 46.2017 105.802 46.869C105.802 47.5623 105.989 48.117 106.361 48.533C106.743 48.9403 107.206 49.261 107.752 49.495C108.307 49.729 108.836 49.9197 109.338 50.067L113.108 51.185C113.464 51.289 113.888 51.4363 114.382 51.627C114.876 51.8177 115.362 52.0907 115.838 52.446C116.315 52.7927 116.709 53.2563 117.021 53.837C117.342 54.409 117.502 55.1283 117.502 55.995C117.502 56.8357 117.342 57.5897 117.021 58.257C116.701 58.9243 116.241 59.492 115.643 59.96C115.045 60.4193 114.339 60.7703 113.524 61.013C112.71 61.2643 111.813 61.39 110.833 61.39Z" fill="#1E222B"/>
<path d="M24.395 87V82.807L21 76.92H22.449L25.025 81.379L27.594 76.92H29.043L25.655 82.807V87H24.395ZM32.118 87.21C31.3666 87.21 30.718 87.0397 30.172 86.699C29.6306 86.3583 29.213 85.887 28.919 85.285C28.625 84.683 28.478 83.9923 28.478 83.213C28.478 82.4197 28.6273 81.7243 28.926 81.127C29.2246 80.5297 29.647 80.0653 30.193 79.734C30.739 79.398 31.3806 79.23 32.118 79.23C32.874 79.23 33.525 79.4003 34.071 79.741C34.617 80.077 35.0346 80.546 35.324 81.148C35.618 81.7453 35.765 82.4337 35.765 83.213C35.765 84.0017 35.618 84.697 35.324 85.299C35.03 85.8963 34.61 86.3653 34.064 86.706C33.518 87.042 32.8693 87.21 32.118 87.21ZM32.118 86.027C32.902 86.027 33.4853 85.7657 33.868 85.243C34.2506 84.7203 34.442 84.0437 34.442 83.213C34.442 82.359 34.2483 81.68 33.861 81.176C33.4736 80.6673 32.8926 80.413 32.118 80.413C31.5906 80.413 31.1566 80.532 30.816 80.77C30.4753 81.008 30.221 81.337 30.053 81.757C29.885 82.177 29.801 82.6623 29.801 83.213C29.801 84.0623 29.997 84.7437 30.389 85.257C30.781 85.7703 31.3573 86.027 32.118 86.027ZM40.1762 87.196C39.6908 87.196 39.2732 87.119 38.9232 86.965C38.5778 86.811 38.2908 86.6057 38.0622 86.349C37.8335 86.0923 37.6538 85.8077 37.5232 85.495C37.3925 85.1823 37.2992 84.8627 37.2432 84.536C37.1918 84.2093 37.1662 83.9037 37.1662 83.619V79.44H38.4262V83.227C38.4262 83.5817 38.4588 83.9247 38.5242 84.256C38.5895 84.5873 38.6992 84.886 38.8532 85.152C39.0118 85.418 39.2218 85.628 39.4832 85.782C39.7492 85.936 40.0805 86.013 40.4772 86.013C40.7898 86.013 41.0745 85.9593 41.3312 85.852C41.5878 85.7447 41.8072 85.586 41.9892 85.376C42.1712 85.1613 42.3112 84.8907 42.4092 84.564C42.5072 84.2373 42.5562 83.857 42.5562 83.423L43.3752 83.675C43.3752 84.403 43.2422 85.0307 42.9762 85.558C42.7148 86.0853 42.3438 86.4913 41.8632 86.776C41.3872 87.056 40.8248 87.196 40.1762 87.196ZM42.6962 87V84.977H42.5562V79.44H43.8092V87H42.6962ZM45.7691 87V79.44H46.8821V81.267L46.7001 81.029C46.7887 80.7957 46.9031 80.581 47.0431 80.385C47.1877 80.189 47.3487 80.028 47.5261 79.902C47.7221 79.7433 47.9437 79.622 48.1911 79.538C48.4384 79.454 48.6904 79.405 48.9471 79.391C49.2037 79.3723 49.4441 79.3887 49.6681 79.44V80.609C49.4067 80.539 49.1197 80.5203 48.8071 80.553C48.4944 80.5857 48.2051 80.7 47.9391 80.896C47.6964 81.0687 47.5074 81.2787 47.3721 81.526C47.2414 81.7733 47.1504 82.0417 47.0991 82.331C47.0477 82.6157 47.0221 82.9073 47.0221 83.206V87H45.7691ZM58.0155 87C57.5675 87.0887 57.1241 87.1237 56.6855 87.105C56.2515 87.091 55.8641 87.0047 55.5235 86.846C55.1828 86.6827 54.9238 86.4307 54.7465 86.09C54.5971 85.7913 54.5155 85.4903 54.5015 85.187C54.4921 84.879 54.4875 84.5313 54.4875 84.144V77.34H55.7335V84.088C55.7335 84.396 55.7358 84.6597 55.7405 84.879C55.7498 85.0983 55.7988 85.2873 55.8875 85.446C56.0555 85.7447 56.3215 85.9197 56.6855 85.971C57.0541 86.0223 57.4975 86.0083 58.0155 85.929V87ZM52.9545 80.469V79.44H58.0155V80.469H52.9545ZM59.6903 78.103V76.815H60.9363V78.103H59.6903ZM59.6903 87V79.44H60.9363V87H59.6903ZM72.0736 87L72.0806 82.163C72.0806 81.5983 71.929 81.1573 71.6256 80.84C71.327 80.518 70.9373 80.357 70.4566 80.357C70.1766 80.357 69.9106 80.4223 69.6586 80.553C69.4066 80.679 69.2013 80.8797 69.0426 81.155C68.884 81.4257 68.8046 81.7733 68.8046 82.198L68.1466 81.932C68.1373 81.3953 68.247 80.9263 68.4756 80.525C68.709 80.119 69.0263 79.804 69.4276 79.58C69.829 79.356 70.2816 79.244 70.7856 79.244C71.5743 79.244 72.195 79.4843 72.6476 79.965C73.1003 80.441 73.3266 81.0827 73.3266 81.89L73.3196 87H72.0736ZM63.0296 87V79.44H64.1426V81.463H64.2826V87H63.0296ZM67.5586 87L67.5656 82.212C67.5656 81.6333 67.4163 81.1807 67.1176 80.854C66.819 80.5227 66.4223 80.357 65.9276 80.357C65.4376 80.357 65.041 80.525 64.7376 80.861C64.4343 81.197 64.2826 81.6427 64.2826 82.198L63.6246 81.806C63.6246 81.316 63.7413 80.8773 63.9746 80.49C64.208 80.1027 64.5253 79.7993 64.9266 79.58C65.328 79.356 65.783 79.244 66.2916 79.244C66.8003 79.244 67.2436 79.3513 67.6216 79.566C67.9996 79.7807 68.2913 80.0887 68.4966 80.49C68.702 80.8867 68.8046 81.3603 68.8046 81.911L68.7976 87H67.5586ZM78.3576 87.21C77.6156 87.21 76.9669 87.0467 76.4116 86.72C75.8609 86.3887 75.4316 85.929 75.1236 85.341C74.8156 84.7483 74.6616 84.0577 74.6616 83.269C74.6616 82.443 74.8132 81.729 75.1166 81.127C75.4199 80.5203 75.8422 80.0537 76.3836 79.727C76.9296 79.3957 77.5689 79.23 78.3016 79.23C79.0622 79.23 79.7086 79.405 80.2406 79.755C80.7772 80.105 81.1786 80.6043 81.4446 81.253C81.7152 81.9017 81.8319 82.674 81.7946 83.57H80.5346V83.122C80.5206 82.1933 80.3316 81.5003 79.9676 81.043C79.6036 80.581 79.0622 80.35 78.3436 80.35C77.5736 80.35 76.9879 80.5973 76.5866 81.092C76.1852 81.5867 75.9846 82.296 75.9846 83.22C75.9846 84.1113 76.1852 84.802 76.5866 85.292C76.9879 85.782 77.5596 86.027 78.3016 86.027C78.8009 86.027 79.2349 85.9127 79.6036 85.684C79.9722 85.4553 80.2616 85.1263 80.4716 84.697L81.6686 85.11C81.3746 85.7773 80.9312 86.2953 80.3386 86.664C79.7506 87.028 79.0902 87.21 78.3576 87.21ZM75.5646 83.57V82.569H81.1506V83.57H75.5646ZM89.0118 87.203C88.1111 87.203 87.3714 87.007 86.7928 86.615C86.2188 86.2183 85.8664 85.6653 85.7358 84.956L87.0098 84.753C87.1124 85.1637 87.3481 85.4903 87.7168 85.733C88.0854 85.971 88.5428 86.09 89.0888 86.09C89.6068 86.09 90.0128 85.9827 90.3068 85.768C90.6008 85.5533 90.7478 85.2617 90.7478 84.893C90.7478 84.6783 90.6988 84.5057 90.6008 84.375C90.5028 84.2397 90.2998 84.1137 89.9918 83.997C89.6884 83.8803 89.2288 83.7403 88.6128 83.577C87.9454 83.3997 87.4204 83.2153 87.0378 83.024C86.6551 82.8327 86.3821 82.611 86.2188 82.359C86.0554 82.107 85.9738 81.8013 85.9738 81.442C85.9738 80.9987 86.0951 80.6113 86.3378 80.28C86.5804 79.944 86.9188 79.685 87.3528 79.503C87.7914 79.321 88.3001 79.23 88.8788 79.23C89.4528 79.23 89.9661 79.321 90.4188 79.503C90.8714 79.685 91.2354 79.944 91.5108 80.28C91.7908 80.6113 91.9564 80.9987 92.0078 81.442L90.7338 81.673C90.6731 81.267 90.4771 80.9473 90.1458 80.714C89.8191 80.4807 89.3968 80.357 88.8788 80.343C88.3888 80.3243 87.9898 80.4107 87.6818 80.602C87.3784 80.7933 87.2268 81.0523 87.2268 81.379C87.2268 81.561 87.2828 81.7173 87.3948 81.848C87.5114 81.9787 87.7238 82.1023 88.0318 82.219C88.3444 82.3357 88.7971 82.4687 89.3898 82.618C90.0571 82.786 90.5821 82.9703 90.9648 83.171C91.3521 83.367 91.6274 83.6003 91.7908 83.871C91.9541 84.137 92.0358 84.466 92.0358 84.858C92.0358 85.586 91.7674 86.16 91.2308 86.58C90.6941 86.9953 89.9544 87.203 89.0118 87.203ZM95.7286 87.21C95.1639 87.21 94.6903 87.1073 94.3076 86.902C93.9296 86.692 93.6426 86.4167 93.4466 86.076C93.2553 85.7353 93.1596 85.362 93.1596 84.956C93.1596 84.5593 93.2343 84.2163 93.3836 83.927C93.5376 83.633 93.7523 83.3903 94.0276 83.199C94.3029 83.003 94.6319 82.849 95.0146 82.737C95.3739 82.639 95.7753 82.555 96.2186 82.485C96.6666 82.4103 97.1193 82.3427 97.5766 82.282C98.0339 82.2213 98.4609 82.163 98.8576 82.107L98.4096 82.366C98.4236 81.694 98.2883 81.197 98.0036 80.875C97.7236 80.553 97.2383 80.392 96.5476 80.392C96.0903 80.392 95.6889 80.497 95.3436 80.707C95.0029 80.9123 94.7626 81.2483 94.6226 81.715L93.4396 81.358C93.6216 80.6953 93.9739 80.175 94.4966 79.797C95.0193 79.419 95.7076 79.23 96.5616 79.23C97.2476 79.23 97.8356 79.3537 98.3256 79.601C98.8203 79.8437 99.1749 80.2123 99.3896 80.707C99.4969 80.9403 99.5646 81.1947 99.5926 81.47C99.6206 81.7407 99.6346 82.0253 99.6346 82.324V87H98.5286V85.187L98.7876 85.355C98.5029 85.9663 98.1039 86.4283 97.5906 86.741C97.0819 87.0537 96.4613 87.21 95.7286 87.21ZM95.9176 86.167C96.3656 86.167 96.7529 86.0877 97.0796 85.929C97.4109 85.7657 97.6769 85.5533 97.8776 85.292C98.0783 85.026 98.2089 84.7367 98.2696 84.424C98.3396 84.1907 98.3769 83.9317 98.3816 83.647C98.3909 83.3577 98.3956 83.136 98.3956 82.982L98.8296 83.171C98.4236 83.227 98.0246 83.2807 97.6326 83.332C97.2406 83.3833 96.8696 83.4393 96.5196 83.5C96.1696 83.556 95.8546 83.6237 95.5746 83.703C95.3693 83.7683 95.1756 83.8523 94.9936 83.955C94.8163 84.0577 94.6716 84.1907 94.5596 84.354C94.4523 84.5127 94.3986 84.711 94.3986 84.949C94.3986 85.1543 94.4499 85.3503 94.5526 85.537C94.6599 85.7237 94.8233 85.8753 95.0426 85.992C95.2666 86.1087 95.5583 86.167 95.9176 86.167ZM103.225 87L100.481 79.44H101.741L103.862 85.411L105.976 79.44H107.243L104.499 87H103.225ZM111.512 87.21C110.77 87.21 110.121 87.0467 109.566 86.72C109.015 86.3887 108.586 85.929 108.278 85.341C107.97 84.7483 107.816 84.0577 107.816 83.269C107.816 82.443 107.968 81.729 108.271 81.127C108.574 80.5203 108.997 80.0537 109.538 79.727C110.084 79.3957 110.723 79.23 111.456 79.23C112.217 79.23 112.863 79.405 113.395 79.755C113.932 80.105 114.333 80.6043 114.599 81.253C114.87 81.9017 114.986 82.674 114.949 83.57H113.689V83.122C113.675 82.1933 113.486 81.5003 113.122 81.043C112.758 80.581 112.217 80.35 111.498 80.35C110.728 80.35 110.142 80.5973 109.741 81.092C109.34 81.5867 109.139 82.296 109.139 83.22C109.139 84.1113 109.34 84.802 109.741 85.292C110.142 85.782 110.714 86.027 111.456 86.027C111.955 86.027 112.389 85.9127 112.758 85.684C113.127 85.4553 113.416 85.1263 113.626 84.697L114.823 85.11C114.529 85.7773 114.086 86.2953 113.493 86.664C112.905 87.028 112.245 87.21 111.512 87.21ZM108.719 83.57V82.569H114.305V83.57H108.719ZM119.475 87.21C118.771 87.21 118.166 87.035 117.662 86.685C117.158 86.3303 116.769 85.852 116.493 85.25C116.223 84.648 116.087 83.969 116.087 83.213C116.087 82.457 116.223 81.778 116.493 81.176C116.769 80.574 117.158 80.1003 117.662 79.755C118.166 79.405 118.768 79.23 119.468 79.23C120.182 79.23 120.782 79.4027 121.267 79.748C121.753 80.0933 122.119 80.567 122.366 81.169C122.618 81.771 122.744 82.4523 122.744 83.213C122.744 83.9643 122.618 84.6433 122.366 85.25C122.119 85.852 121.753 86.3303 121.267 86.685C120.782 87.035 120.185 87.21 119.475 87.21ZM119.629 86.069C120.138 86.069 120.556 85.9477 120.882 85.705C121.209 85.4577 121.449 85.1193 121.603 84.69C121.762 84.256 121.841 83.7637 121.841 83.213C121.841 82.653 121.762 82.1607 121.603 81.736C121.449 81.3067 121.211 80.973 120.889 80.735C120.567 80.4923 120.159 80.371 119.664 80.371C119.151 80.371 118.726 80.497 118.39 80.749C118.059 81.001 117.812 81.3417 117.648 81.771C117.49 82.2003 117.41 82.681 117.41 83.213C117.41 83.7497 117.492 84.235 117.655 84.669C117.819 85.0983 118.064 85.439 118.39 85.691C118.722 85.943 119.135 86.069 119.629 86.069ZM121.841 87V81.435H121.701V76.92H122.954V87H121.841Z" fill="#1E222B"/>
</svg>
