<svg width="29" height="29" viewBox="0 0 29 29" fill="none" xmlns="http://www.w3.org/2000/svg">
<path d="M1.58325 6.74998C1.58325 5.37969 2.1276 4.06553 3.09653 3.09659C4.06547 2.12766 5.37963 1.58331 6.74992 1.58331H22.2499C23.6202 1.58331 24.9344 2.12766 25.9033 3.09659C26.8722 4.06553 27.4166 5.37969 27.4166 6.74998V22.25C27.4166 23.6203 26.8722 24.9344 25.9033 25.9034C24.9344 26.8723 23.6202 27.4166 22.2499 27.4166H6.74992C5.37963 27.4166 4.06547 26.8723 3.09653 25.9034C2.1276 24.9344 1.58325 23.6203 1.58325 22.25V6.74998Z" stroke="#A1ABC0" stroke-width="2" stroke-linecap="round" stroke-linejoin="round"/>
<path d="M9.97917 13.2083C11.7626 13.2083 13.2083 11.7626 13.2083 9.97917C13.2083 8.19575 11.7626 6.75 9.97917 6.75C8.19575 6.75 6.75 8.19575 6.75 9.97917C6.75 11.7626 8.19575 13.2083 9.97917 13.2083Z" stroke="#A1ABC0" stroke-width="2" stroke-linecap="round" stroke-linejoin="round"/>
<path d="M17.7628 15.3022L6.75 27.4167H22.4218C23.7465 27.4167 25.017 26.8905 25.9537 25.9538C26.8904 25.017 27.4167 23.7466 27.4167 22.4219V22.2501C27.4167 21.6481 27.1906 21.4169 26.7838 20.9713L21.5783 15.2944C21.3357 15.0298 21.0406 14.8186 20.7119 14.6744C20.3831 14.5302 20.0278 14.4561 19.6688 14.4568C19.3098 14.4575 18.9549 14.5331 18.6267 14.6786C18.2985 14.8242 18.0043 15.0366 17.7628 15.3022V15.3022Z" stroke="#A1ABC0" stroke-width="2" stroke-linecap="round" stroke-linejoin="round"/>
</svg>
